<svg width="2500" height="741" viewBox="0 0 2500 741" fill="none" xmlns="http://www.w3.org/2000/svg">
<path d="M2483.42 653.292C2483.42 662.615 2481.58 671.847 2478.01 680.459C2474.44 689.072 2469.2 696.896 2462.61 703.485C2456.01 710.074 2448.18 715.298 2439.56 718.859C2430.94 722.42 2421.7 724.248 2412.38 724.238H87.6215C68.7793 724.258 50.7007 716.795 37.3615 703.49C24.0224 690.186 16.515 672.13 16.4905 653.292V87.5252C16.515 68.6794 24.0194 50.6136 37.3559 37.2946C50.6924 23.9755 68.7708 16.492 87.6215 16.4871H2412.36C2421.69 16.4871 2430.93 18.3247 2439.55 21.8949C2448.17 25.4651 2456 30.698 2462.6 37.2948C2469.2 43.8915 2474.43 51.7228 2478 60.3415C2481.57 68.9601 2483.4 78.1972 2483.4 87.5252L2483.42 653.292Z" fill="white"/>
<path d="M2412.38 740.741H87.6215C64.41 740.737 42.1484 731.526 25.7215 715.132C9.29459 698.737 0.0441651 676.497 0 653.291L0 87.5427C0.0343381 64.3258 9.27865 42.0705 25.705 25.6589C42.1314 9.24734 64.3984 0.0195959 87.6215 0L2412.36 0C2435.58 0.0293738 2457.84 9.26026 2474.27 25.6697C2490.69 42.0792 2499.94 64.3288 2499.98 87.5427V653.291C2500.02 701.527 2460.65 740.741 2412.38 740.741Z" fill="#A6A6A6"/>
<path d="M2483.42 653.292C2483.42 662.615 2481.58 671.847 2478.01 680.459C2474.44 689.072 2469.2 696.896 2462.61 703.485C2456.01 710.074 2448.18 715.298 2439.56 718.859C2430.94 722.42 2421.7 724.248 2412.38 724.238H87.6215C68.7793 724.258 50.7007 716.795 37.3615 703.49C24.0224 690.186 16.515 672.13 16.4905 653.292V87.5252C16.515 68.6794 24.0194 50.6136 37.3559 37.2946C50.6924 23.9755 68.7708 16.492 87.6215 16.4871H2412.36C2421.69 16.4871 2430.93 18.3247 2439.55 21.8949C2448.17 25.4651 2456 30.698 2462.6 37.2948C2469.2 43.8915 2474.43 51.7228 2478 60.3415C2481.57 68.9601 2483.4 78.1972 2483.4 87.5252L2483.42 653.292Z" fill="black"/>
<path d="M558.228 366.472C557.691 306.771 607.125 277.725 609.385 276.373C581.389 235.566 537.995 229.99 522.746 229.546C486.3 225.711 450.948 251.348 432.382 251.348C413.446 251.348 384.856 229.916 354.043 230.546C314.392 231.157 277.298 254.108 256.954 289.747C214.968 362.416 246.281 469.204 286.507 527.943C306.629 556.728 330.142 588.83 360.917 587.7C391.026 586.477 402.273 568.528 438.608 568.528C474.609 568.528 485.17 587.7 516.557 586.978C548.871 586.477 569.215 558.081 588.633 529.054C611.887 496.101 621.225 463.61 621.595 461.943C620.854 461.684 558.858 438.01 558.228 366.472ZM498.937 190.905C515.13 170.659 526.211 143.114 523.135 115.162C499.696 116.199 470.384 131.37 453.505 151.172C438.571 168.621 425.23 197.222 428.676 224.118C455.005 226.082 482.039 210.837 498.937 190.905Z" fill="white"/>
<path d="M2412.38 0H1167.17L1654.89 740.741H2412.38C2435.6 740.722 2457.86 731.499 2474.28 715.096C2490.71 698.692 2499.96 676.446 2500 653.236V87.5427C2499.96 64.3273 2490.71 42.0749 2474.29 25.6643C2457.86 9.2538 2435.6 0.0244867 2412.38 0Z" fill="url(#paint0_linear_2488_47)"/>
<path d="M994.334 583.568H952.256L929.206 511.159H849.089L827.133 583.568H786.166L865.561 337.056H914.587L994.334 583.568ZM922.258 480.781L901.414 416.411C899.209 409.835 895.058 394.349 888.981 369.972H888.24C885.794 380.457 881.884 395.942 876.53 416.411L856.037 480.781H922.258ZM1198.11 492.506C1198.11 522.737 1189.9 546.632 1173.47 564.174C1158.76 579.79 1140.47 587.588 1118.66 587.588C1095.11 587.588 1078.18 579.197 1067.89 562.377V655.644H1028.39V464.239C1028.39 445.252 1027.89 425.784 1026.93 405.816H1061.67L1063.87 433.99H1064.61C1077.79 412.762 1097.78 402.148 1124.61 402.148C1145.58 402.148 1163.09 410.428 1177.1 427.007C1191.09 443.622 1198.11 465.443 1198.11 492.506ZM1157.87 493.951C1157.87 476.65 1153.98 462.387 1146.16 451.143C1137.62 439.455 1126.15 433.601 1111.77 433.601C1102.02 433.601 1093.17 436.861 1085.25 443.289C1077.32 449.772 1072.14 458.237 1069.71 468.722C1068.62 472.643 1068.01 476.678 1067.87 480.744V510.4C1067.87 523.311 1071.84 534.221 1079.77 543.15C1087.7 552.041 1098 556.505 1110.67 556.505C1125.55 556.505 1137.13 550.744 1145.42 539.315C1153.72 527.849 1157.87 512.734 1157.87 493.951ZM1402.61 492.506C1402.61 522.737 1394.4 546.632 1377.97 564.174C1363.24 579.79 1344.97 587.588 1323.14 587.588C1299.59 587.588 1282.66 579.197 1272.37 562.377V655.644H1232.87V464.239C1232.87 445.252 1232.37 425.784 1231.41 405.816H1266.15L1268.35 433.99H1269.09C1282.25 412.762 1302.24 402.148 1329.09 402.148C1350.05 402.148 1367.55 410.428 1381.6 427.007C1395.57 443.622 1402.61 465.443 1402.61 492.506ZM1362.35 493.951C1362.35 476.65 1358.44 462.387 1350.62 451.143C1342.08 439.455 1330.65 433.601 1316.27 433.601C1306.52 433.601 1297.66 436.861 1289.72 443.289C1281.79 449.772 1276.62 458.237 1274.19 468.722C1272.98 473.612 1272.34 477.595 1272.34 480.744V510.4C1272.34 523.311 1276.32 534.221 1284.21 543.15C1292.14 552.023 1302.45 556.505 1315.16 556.505C1330.05 556.505 1341.63 550.744 1349.9 539.315C1358.2 527.849 1362.35 512.734 1362.35 493.951ZM1631.25 514.42C1631.25 535.407 1623.92 552.467 1609.33 565.637C1593.29 580.012 1570.89 587.218 1542.17 587.218C1515.63 587.218 1494.36 582.105 1478.32 571.861L1487.45 538.945C1504.78 549.207 1523.81 554.32 1544.52 554.32C1559.42 554.32 1571 550.948 1579.26 544.261C1587.54 537.556 1591.73 528.59 1591.73 517.402C1591.73 507.381 1588.27 498.989 1581.47 492.154C1574.63 485.338 1563.33 478.984 1547.45 473.149C1504.28 457.052 1482.67 433.508 1482.67 402.537C1482.67 382.309 1490.31 365.749 1505.54 352.801C1520.77 339.871 1540.96 333.407 1566.09 333.407C1588.53 333.407 1607.22 337.315 1622.06 345.114L1612.15 377.308C1598.18 369.75 1582.41 365.971 1564.77 365.971C1550.84 365.971 1539.91 369.398 1532.09 376.215C1525.51 382.309 1522.18 389.737 1522.18 398.554C1522.18 408.279 1525.97 416.356 1533.53 422.691C1540.09 428.526 1552.06 434.879 1569.37 441.696C1590.6 450.254 1606.2 460.219 1616.19 471.667C1626.25 483.115 1631.25 497.396 1631.25 514.42ZM1762.19 435.453H1718.65V521.755C1718.65 543.705 1726.32 554.653 1741.7 554.653C1748.76 554.653 1754.62 554.06 1759.25 552.819L1760.34 582.809C1752.56 585.717 1742.31 587.18 1729.62 587.18C1714.02 587.18 1701.83 582.42 1693.03 572.899C1684.26 563.378 1679.85 547.429 1679.85 524.978V435.379H1653.91V405.741H1679.85V373.195L1718.65 361.489V405.741H1762.19V435.453ZM1958.26 493.229C1958.26 520.551 1950.44 542.983 1934.84 560.525C1918.52 578.586 1896.8 587.588 1869.73 587.588C1843.61 587.588 1822.84 578.937 1807.35 561.655C1791.86 544.335 1784.11 522.514 1784.11 496.192C1784.11 468.648 1792.12 446.086 1808.07 428.544C1824.06 410.984 1845.59 402.203 1872.66 402.203C1898.75 402.203 1919.7 410.873 1935.57 428.174C1950.72 444.956 1958.26 466.629 1958.26 493.229ZM1917.31 494.136C1917.31 477.854 1913.79 463.887 1906.73 452.199C1898.45 438.084 1886.59 431.026 1871.23 431.026C1855.41 431.026 1843.27 438.084 1835.01 452.199C1827.93 463.887 1824.41 478.095 1824.41 494.877C1824.41 511.178 1827.93 525.182 1835.01 536.833C1843.55 550.948 1855.47 558.006 1870.9 558.006C1886 558.006 1897.84 550.8 1906.4 536.481C1913.66 524.515 1917.31 510.456 1917.31 494.136ZM2086.72 440.547C2082.61 439.806 2078.45 439.44 2074.27 439.455C2060.37 439.455 2049.63 444.678 2042.07 455.2C2035.51 464.461 2032.21 476.168 2032.21 490.302V583.568H1992.71V461.794C1992.74 443.134 1992.36 424.477 1991.56 405.834H2025.97L2027.41 439.844H2028.5C2032.69 428.155 2039.25 418.727 2048.26 411.669C2056.5 405.502 2066.51 402.163 2076.81 402.148C2080.46 402.148 2083.76 402.407 2086.68 402.87L2086.72 440.547ZM2263.39 486.282C2263.49 492.286 2263.01 498.285 2261.95 504.195H2143.44C2143.88 521.755 2149.63 535.203 2160.63 544.465C2170.62 552.727 2183.53 556.876 2199.39 556.876C2216.94 556.876 2232.95 554.097 2247.35 548.485L2253.53 575.881C2236.71 583.216 2216.85 586.866 2193.93 586.866C2166.36 586.866 2144.72 578.752 2128.97 562.563C2113.25 546.354 2105.38 524.571 2105.38 497.285C2105.38 470.5 2112.7 448.179 2127.35 430.378C2142.7 411.373 2163.43 401.87 2189.52 401.87C2215.14 401.87 2234.54 411.373 2247.72 430.378C2258.15 445.438 2263.39 464.109 2263.39 486.282ZM2225.72 476.039C2226 464.313 2223.41 454.218 2218.05 445.678C2211.21 434.675 2200.69 429.192 2186.59 429.192C2173.68 429.192 2163.15 434.546 2155.15 445.289C2148.57 453.829 2144.66 464.091 2143.46 476.002L2225.72 476.039Z" fill="white"/>
<path d="M837.694 249.903C826.706 249.903 817.201 249.366 809.29 248.458V129.277C820.355 127.568 831.537 126.726 842.734 126.758C888.036 126.758 908.899 149.042 908.899 185.366C908.899 227.267 884.256 249.903 837.694 249.903ZM844.327 142.04C838.213 142.04 833.006 142.41 828.689 143.299V233.898C831.023 234.269 835.507 234.435 841.807 234.435C871.49 234.435 888.388 217.542 888.388 185.904C888.388 157.692 873.102 142.04 844.327 142.04ZM973.916 250.81C948.383 250.81 931.837 231.75 931.837 205.872C931.837 178.902 948.735 159.674 975.361 159.674C1000.52 159.674 1017.44 177.827 1017.44 204.446C1017.44 231.75 1000 250.81 973.916 250.81ZM974.657 173.863C960.631 173.863 951.644 186.978 951.644 205.316C951.644 223.303 960.816 236.417 974.471 236.417C988.127 236.417 997.299 222.395 997.299 204.946C997.299 187.163 988.312 173.863 974.657 173.863ZM1163.04 161.471L1135.71 248.828H1117.9L1106.58 210.892C1103.77 201.612 1101.42 192.197 1099.56 182.68H1099.19C1097.76 192.202 1095.06 201.741 1092.18 210.892L1080.14 248.828H1062.15L1036.43 161.471H1056.39L1066.28 203.001C1068.61 212.892 1070.58 222.228 1072.21 231.046H1072.58C1074.01 223.692 1076.34 214.504 1079.77 203.186L1092.18 161.489H1108.01L1119.88 202.297C1122.76 212.189 1125.09 221.895 1126.91 231.064H1127.42C1128.68 222.08 1130.67 212.541 1133.35 202.297L1143.97 161.489L1163.04 161.471ZM1263.65 248.828H1244.23V198.666C1244.23 183.218 1238.3 175.475 1226.61 175.475C1215.1 175.475 1207.19 185.366 1207.19 196.87V248.828H1187.77V186.441C1187.77 178.716 1187.59 170.436 1187.05 161.452H1204.13L1205.04 174.938H1205.58C1210.8 165.602 1221.4 159.674 1233.28 159.674C1251.62 159.674 1263.66 173.696 1263.66 196.518L1263.65 248.828ZM1317.19 248.828H1297.76V121.386H1317.19V248.828ZM1387.99 250.81C1362.48 250.81 1345.91 231.75 1345.91 205.872C1345.91 178.902 1362.81 159.674 1389.42 159.674C1414.6 159.674 1431.5 177.827 1431.5 204.446C1431.51 231.75 1414.06 250.81 1387.99 250.81ZM1388.71 173.863C1374.69 173.863 1365.7 186.978 1365.7 205.316C1365.7 223.303 1374.89 236.417 1388.51 236.417C1402.18 236.417 1411.34 222.395 1411.34 204.946C1411.36 187.163 1402.39 173.863 1388.71 173.863ZM1508.06 248.828L1506.65 238.77H1506.13C1500.2 246.865 1491.55 250.81 1480.58 250.81C1464.92 250.81 1453.8 239.844 1453.8 225.1C1453.8 203.538 1472.5 192.387 1504.87 192.387V190.775C1504.87 179.272 1498.77 173.511 1486.73 173.511C1478.11 173.511 1470.55 175.679 1463.9 179.995L1459.96 167.232C1468.03 162.193 1478.11 159.674 1489.95 159.674C1512.78 159.674 1524.31 171.714 1524.31 195.814V227.989C1524.31 236.806 1524.69 243.642 1525.57 248.847L1508.06 248.828ZM1505.39 205.316C1483.82 205.316 1473 210.54 1473 222.932C1473 232.101 1478.58 236.584 1486.32 236.584C1496.2 236.584 1505.39 229.045 1505.39 218.802V205.316ZM1618.6 248.828L1617.69 234.806H1617.15C1611.58 245.401 1602.2 250.81 1589.1 250.81C1568.03 250.81 1552.43 232.287 1552.43 206.224C1552.43 178.902 1568.61 159.656 1590.69 159.656C1602.39 159.656 1610.67 163.601 1615.34 171.529H1615.73V121.386H1635.16V225.285C1635.16 233.732 1635.37 241.641 1635.88 248.828H1618.6ZM1615.73 197.425C1615.73 185.2 1607.63 174.771 1595.27 174.771C1580.87 174.771 1572.07 187.534 1572.07 205.502C1572.07 223.118 1581.21 235.176 1594.88 235.176C1607.09 235.176 1615.73 224.562 1615.73 211.985V197.425ZM1758.4 250.81C1732.88 250.81 1716.34 231.75 1716.34 205.872C1716.34 178.902 1733.23 159.674 1759.84 159.674C1785.02 159.674 1801.92 177.827 1801.92 204.446C1801.94 231.75 1784.5 250.81 1758.4 250.81ZM1759.12 173.863C1745.11 173.863 1736.12 186.978 1736.12 205.316C1736.12 223.303 1745.3 236.417 1758.93 236.417C1772.61 236.417 1781.76 222.395 1781.76 204.946C1781.8 187.163 1772.81 173.863 1759.12 173.863ZM1906.35 248.828H1886.91V198.666C1886.91 183.218 1880.98 175.475 1869.29 175.475C1857.78 175.475 1849.89 185.366 1849.89 196.87V248.828H1830.45V186.441C1830.45 178.716 1830.27 170.436 1829.73 161.452H1846.81L1847.72 174.938H1848.26C1853.47 165.602 1864.08 159.656 1875.94 159.656C1894.28 159.656 1906.35 173.678 1906.35 196.499V248.828ZM2036.99 176.03H2015.63V218.45C2015.63 229.249 2019.37 234.639 2026.93 234.639C2030.36 234.639 2033.23 234.269 2035.55 233.732L2036.08 248.476C2032.32 249.921 2027.28 250.644 2021.02 250.644C2005.71 250.644 1996.56 242.197 1996.56 220.08V176.03H1983.81V161.471H1996.56V145.466L2015.63 139.706V161.452H2036.99V176.03ZM2139.79 248.828H2120.39V199.037C2120.39 183.403 2114.48 175.493 2102.77 175.493C2092.71 175.493 2083.33 182.328 2083.33 196.166V248.828H2063.93V121.386H2083.33V173.863H2083.72C2089.83 164.342 2098.69 159.656 2109.99 159.656C2128.48 159.656 2139.79 174.03 2139.79 196.87V248.828ZM2245.1 209.818H2186.83C2187.2 226.359 2198.15 235.695 2214.36 235.695C2222.98 235.695 2230.91 234.25 2237.91 231.564L2240.93 245.05C2232.67 248.643 2222.94 250.44 2211.62 250.44C2184.29 250.44 2168.12 233.176 2168.12 206.409C2168.12 179.624 2184.68 159.489 2209.44 159.489C2231.76 159.489 2245.77 176.03 2245.77 201.019C2245.9 203.968 2245.67 206.921 2245.1 209.818ZM2227.3 195.98C2227.3 182.495 2220.5 172.974 2208.08 172.974C2196.93 172.974 2188.11 182.68 2186.85 195.98H2227.3Z" fill="white"/>
<defs>
<linearGradient id="paint0_linear_2488_47" x1="1833.56" y1="742.708" x2="1833.56" y2="-1928.76" gradientUnits="userSpaceOnUse">
<stop stop-color="#1A1A1A" stop-opacity="0.1"/>
<stop offset="0.123" stop-color="#212121" stop-opacity="0.151"/>
<stop offset="0.308" stop-color="#353535" stop-opacity="0.227"/>
<stop offset="0.532" stop-color="#575757" stop-opacity="0.318"/>
<stop offset="0.783" stop-color="#858585" stop-opacity="0.421"/>
<stop offset="1" stop-color="#B3B3B3" stop-opacity="0.51"/>
</linearGradient>
</defs>
</svg>
