<svg width="441" height="224" viewBox="0 0 441 224" fill="none" xmlns="http://www.w3.org/2000/svg">
<g filter="url(#filter0_dddddd_2487_5)">
<path d="M88.9353 2.0021C89.3226 2 89.7061 2 90.0944 2H196.6C196.98 2 197.367 1.9999 197.747 2.002C198.011 2.00362 198.279 2.00805 198.545 2.01242C198.605 2.01341 198.664 2.01439 198.723 2.01533C199.433 2.02313 200.141 2.08516 200.841 2.20087C201.543 2.31943 202.224 2.54132 202.861 2.85921C204.134 3.50783 205.17 4.536 205.824 5.7991C206.143 6.42841 206.364 7.10223 206.479 7.79746C206.597 8.49234 206.663 9.19498 206.676 9.89955C206.68 10.2216 206.68 10.5446 206.68 10.8666C206.689 11.247 206.689 11.6284 206.689 12.013V33.988C206.689 34.3756 206.689 34.755 206.68 35.1364C206.68 35.4625 206.68 35.7783 206.676 36.1044C206.663 36.809 206.597 37.5116 206.479 38.2064C206.365 38.9021 206.144 39.5763 205.824 40.2059C205.499 40.8325 205.077 41.4045 204.573 41.9009C204.073 42.4016 203.495 42.8195 202.861 43.1386C202.224 43.4573 201.543 43.6805 200.841 43.8009C200.141 43.9157 199.433 43.9778 198.723 43.9866C198.401 43.9937 198.07 43.9978 197.747 43.9978C197.367 43.9999 196.98 43.9999 196.599 43.9999H90.0944C89.7061 43.9999 89.3226 43.9999 88.9354 43.9978C88.6112 43.9978 88.2896 43.9937 87.9625 43.9866C87.2516 43.9773 86.5425 43.9152 85.8409 43.8009C85.1405 43.6814 84.462 43.4581 83.8285 43.1386C83.1941 42.8197 82.6156 42.4018 82.1149 41.9009C81.6095 41.4065 81.1883 40.834 80.8675 40.2059C80.5454 39.5768 80.3223 38.9025 80.2058 38.2064C80.0879 37.5117 80.0245 36.809 80.0161 36.1045C80.0094 35.8815 80.0067 35.6633 80.0041 35.4434C80.0029 35.3416 80.0016 35.2396 80 35.1364V10.8666C80.0017 10.7636 80.0029 10.6604 80.0041 10.5573C80.0068 10.338 80.0094 10.1186 80.0161 9.89966C80.0245 9.19515 80.0879 8.49235 80.2058 7.79756C80.3226 7.10187 80.5457 6.42792 80.8675 5.799C81.1884 5.16888 81.6096 4.59417 82.1149 4.09695C82.6175 3.59829 83.1957 3.1807 83.8285 2.85932C84.4621 2.54065 85.1405 2.3187 85.8409 2.20097C86.5423 2.08575 87.2516 2.02373 87.9625 2.01544C88.0295 2.01438 88.0963 2.01329 88.1629 2.0122C88.4215 2.00796 88.6776 2.00377 88.9353 2.0021Z" fill="black"/>
</g>
<path d="M88.9404 43.081C88.6178 43.081 88.3031 43.0769 87.983 43.0697C87.3201 43.0612 86.6586 43.004 86.0042 42.8986C85.394 42.7943 84.8028 42.6004 84.2503 42.3232C83.7027 42.0483 83.2034 41.6879 82.7713 41.2558C82.3329 40.8287 81.9679 40.3334 81.6908 39.7894C81.4106 39.242 81.2167 38.6551 81.1159 38.0494C81.007 37.3985 80.9481 36.7404 80.9397 36.0806C80.9329 35.8592 80.9241 35.122 80.9241 35.122V10.8663C80.9241 10.8663 80.9335 10.1403 80.9397 9.92698C80.9478 9.26832 81.0064 8.61123 81.1149 7.96138C81.216 7.35398 81.41 6.76545 81.6903 6.21618C81.9664 5.6726 82.3293 5.1769 82.765 4.74829C83.2003 4.31561 83.7013 3.95333 84.2497 3.67467C84.801 3.39841 85.3911 3.20589 86.0001 3.10357C86.6567 2.99712 87.3204 2.9396 87.9857 2.93148L88.9409 2.91846H197.742L198.709 2.93179C199.368 2.93956 200.026 2.99663 200.676 3.10252C201.291 3.20616 201.888 3.40005 202.445 3.67782C203.544 4.23939 204.438 5.12786 205.002 6.2187C205.278 6.76421 205.469 7.34797 205.569 7.95015C205.678 8.60531 205.74 9.26756 205.753 9.9316C205.756 10.229 205.756 10.5484 205.756 10.8663C205.764 11.2601 205.764 11.6348 205.764 12.0127V33.9877C205.764 34.3691 205.764 34.7414 205.756 35.1166C205.756 35.4581 205.756 35.7709 205.751 36.0928C205.739 36.745 205.679 37.3955 205.57 38.039C205.472 38.6491 205.279 39.2405 204.999 39.7925C204.72 40.3305 204.357 40.8215 203.924 41.2475C203.491 41.6819 202.991 42.0445 202.442 42.3211C201.886 42.6004 201.291 42.795 200.676 42.8984C200.022 43.0044 199.36 43.0616 198.697 43.0696C198.381 43.077 198.064 43.0807 197.747 43.0809L196.6 43.083L88.9404 43.081Z" fill="black"/>
<path d="M106.223 23.3161C106.234 22.4397 106.469 21.5804 106.905 20.8182C107.341 20.056 107.965 19.4155 108.718 18.9565C108.239 18.2791 107.608 17.7216 106.875 17.3283C106.141 16.935 105.326 16.7168 104.492 16.6909C102.714 16.5058 100.991 17.746 100.085 17.746C99.1614 17.746 97.7666 16.7093 96.2646 16.74C95.2931 16.7711 94.3462 17.0512 93.5163 17.5532C92.6864 18.0551 92.0018 18.7617 91.5291 19.6041C89.4815 23.1201 91.0088 28.2871 92.9703 31.129C93.9516 32.5207 95.0984 34.0751 96.5991 34.02C98.0675 33.9596 98.6159 33.0913 100.389 33.0913C102.145 33.0913 102.659 34.02 104.19 33.9849C105.766 33.9596 106.759 32.5871 107.706 31.1824C108.411 30.1908 108.953 29.0949 109.313 27.9352C108.398 27.5512 107.617 26.9084 107.067 26.087C106.517 25.2656 106.224 24.3019 106.223 23.3161ZM103.331 14.8218C104.19 13.7989 104.613 12.4841 104.511 11.1567C103.198 11.2934 101.986 11.9156 101.115 12.8993C100.689 13.3798 100.363 13.9389 100.155 14.5445C99.9475 15.1501 99.8621 15.7904 99.904 16.4287C100.561 16.4354 101.21 16.2943 101.804 16.016C102.397 15.7376 102.919 15.3293 103.331 14.8218V14.8218ZM124.785 30.497H119.774L118.571 34.0212H116.448L121.195 20.9824H123.4L128.146 34.0212H125.988L124.785 30.497ZM120.293 28.8707H124.265L122.307 23.1511H122.252L120.293 28.8707ZM138.397 29.2686C138.397 32.2227 136.803 34.1207 134.397 34.1207C133.788 34.1523 133.182 34.0131 132.648 33.7189C132.115 33.4248 131.676 32.9876 131.381 32.4575H131.336V37.1661H129.368V24.5149H131.273V26.0961H131.309C131.617 25.5685 132.064 25.1336 132.601 24.8376C133.139 24.5417 133.747 24.3958 134.361 24.4154C136.794 24.4154 138.397 26.3227 138.397 29.2685V29.2686ZM136.375 29.2686C136.375 27.344 135.372 26.0786 133.842 26.0786C132.339 26.0786 131.328 27.3706 131.328 29.2685C131.328 31.184 132.339 32.4668 133.842 32.4668C135.372 32.4668 136.375 31.2107 136.375 29.2685V29.2686ZM148.947 29.2686C148.947 32.2227 147.353 34.1207 144.947 34.1207C144.338 34.1523 143.732 34.013 143.198 33.7189C142.665 33.4248 142.226 32.9876 141.931 32.4575H141.886V37.1661H139.918V24.5149H141.823V26.0961H141.859C142.167 25.5685 142.613 25.1336 143.151 24.8376C143.688 24.5417 144.296 24.3958 144.911 24.4154C147.344 24.4154 148.947 26.3227 148.947 29.2685V29.2686ZM146.925 29.2686C146.925 27.344 145.922 26.0786 144.392 26.0786C142.889 26.0786 141.877 27.3706 141.877 29.2685C141.877 31.184 142.889 32.4668 144.392 32.4668C145.922 32.4668 146.925 31.2107 146.925 29.2685V29.2686ZM155.92 30.3884C156.066 31.6813 157.332 32.5303 159.063 32.5303C160.721 32.5303 161.914 31.6813 161.914 30.5154C161.914 29.5033 161.195 28.8974 159.491 28.4821L157.787 28.075C155.373 27.4967 154.252 26.3769 154.252 24.5599C154.252 22.3102 156.229 20.765 159.036 20.765C161.814 20.765 163.718 22.3102 163.782 24.5599H161.796C161.677 23.2588 160.593 22.4733 159.008 22.4733C157.423 22.4733 156.338 23.268 156.338 24.4246C156.338 25.3465 157.031 25.8889 158.726 26.3041L160.174 26.6569C162.871 27.2895 163.992 28.3642 163.992 30.2713C163.992 32.7107 162.033 34.2386 158.917 34.2386C156.001 34.2386 154.033 32.7465 153.906 30.3882L155.92 30.3884ZM168.238 22.2653V24.5149H170.061V26.0602H168.238V31.3009C168.238 32.1151 168.603 32.4944 169.405 32.4944C169.621 32.4907 169.837 32.4756 170.052 32.4493V33.9854C169.692 34.0521 169.326 34.0823 168.959 34.0755C167.019 34.0755 166.262 33.3527 166.262 31.509V26.0602H164.868V24.5149H166.262V22.2653H168.238ZM171.117 29.2686C171.117 26.2775 172.893 24.398 175.663 24.398C178.442 24.398 180.21 26.2775 180.21 29.2686C180.21 32.2678 178.451 34.1392 175.663 34.1392C172.875 34.1392 171.117 32.2678 171.117 29.2686ZM178.205 29.2686C178.205 27.2168 177.257 26.0058 175.663 26.0058C174.069 26.0058 173.121 27.226 173.121 29.2686C173.121 31.3286 174.069 32.5303 175.663 32.5303C177.257 32.5303 178.205 31.3286 178.205 29.2686ZM181.832 24.5149H183.708V26.1329H183.754C183.881 25.6276 184.179 25.181 184.599 24.8682C185.019 24.5554 185.535 24.3955 186.06 24.4154C186.286 24.4146 186.512 24.4391 186.734 24.4882V26.3134C186.447 26.2267 186.149 26.1868 185.85 26.1955C185.564 26.184 185.279 26.234 185.014 26.342C184.75 26.45 184.512 26.6136 184.317 26.8213C184.123 27.0291 183.975 27.2763 183.886 27.5458C183.797 27.8153 183.767 28.1008 183.8 28.3826V34.0212H181.832V24.5149ZM195.805 31.2291C195.54 32.9549 193.846 34.1392 191.678 34.1392C188.889 34.1392 187.159 32.2863 187.159 29.3137C187.159 26.3319 188.899 24.398 191.595 24.398C194.247 24.398 195.915 26.2047 195.915 29.0871V29.7556H189.145V29.8735C189.113 30.2234 189.158 30.5758 189.274 30.9075C189.391 31.2391 189.577 31.5423 189.821 31.797C190.065 32.0517 190.361 32.252 190.689 32.3846C191.017 32.5173 191.369 32.5792 191.723 32.5663C192.188 32.6095 192.655 32.5027 193.054 32.2618C193.452 32.0208 193.762 31.6587 193.937 31.2291H195.805ZM189.154 28.3919H193.946C193.964 28.0773 193.916 27.7625 193.805 27.4672C193.694 27.1719 193.523 26.9026 193.302 26.676C193.081 26.4495 192.816 26.2706 192.522 26.1507C192.228 26.0307 191.913 25.9723 191.595 25.9791C191.275 25.9772 190.957 26.0383 190.66 26.1588C190.364 26.2792 190.095 26.4568 189.868 26.6811C189.641 26.9054 189.461 27.1721 189.338 27.4657C189.216 27.7593 189.153 28.0741 189.154 28.3919V28.3919ZM120.046 11.1679C120.459 11.1386 120.873 11.2004 121.258 11.3489C121.644 11.4974 121.991 11.7289 122.276 12.0267C122.56 12.3245 122.774 12.6812 122.903 13.0711C123.031 13.4609 123.071 13.8742 123.019 14.2811C123.019 16.2826 121.928 17.4332 120.046 17.4332H117.765V11.1678L120.046 11.1679ZM118.746 16.5471H119.937C120.232 16.5645 120.527 16.5166 120.8 16.4067C121.074 16.2969 121.32 16.1279 121.519 15.912C121.719 15.6962 121.867 15.439 121.954 15.159C122.041 14.8791 122.063 14.5835 122.02 14.2938C122.06 14.0052 122.035 13.7115 121.947 13.4336C121.859 13.1557 121.71 12.9005 121.511 12.6864C121.312 12.4723 121.068 12.3045 120.796 12.195C120.523 12.0856 120.23 12.0372 119.937 12.0533H118.746V16.5471ZM124.127 15.067C124.097 14.7563 124.133 14.4428 124.232 14.1466C124.332 13.8504 124.492 13.5781 124.704 13.3471C124.916 13.1162 125.174 12.9316 125.462 12.8053C125.749 12.679 126.061 12.6138 126.375 12.6138C126.69 12.6138 127.001 12.679 127.289 12.8053C127.577 12.9316 127.835 13.1162 128.047 13.3471C128.258 13.5781 128.419 13.8504 128.518 14.1466C128.618 14.4428 128.654 14.7563 128.624 15.067C128.654 15.3781 128.619 15.6921 128.52 15.9888C128.421 16.2855 128.26 16.5584 128.048 16.7899C127.837 17.0214 127.578 17.2064 127.29 17.333C127.002 17.4596 126.691 17.525 126.375 17.525C126.06 17.525 125.749 17.4596 125.46 17.333C125.172 17.2064 124.914 17.0214 124.702 16.7899C124.491 16.5584 124.33 16.2855 124.231 15.9888C124.132 15.6921 124.097 15.3781 124.127 15.067ZM127.656 15.067C127.656 14.0421 127.192 13.4428 126.377 13.4428C125.559 13.4428 125.099 14.0421 125.099 15.067C125.099 16.1001 125.559 16.6948 126.377 16.6948C127.192 16.6948 127.656 16.096 127.656 15.067V15.067ZM134.601 17.4331H133.624L132.639 13.9508H132.565L131.584 17.4331H130.617L129.303 12.7049H130.257L131.111 16.3127H131.181L132.162 12.7049H133.064L134.044 16.3127H134.119L134.969 12.7049H135.909L134.601 17.4331ZM137.015 12.705H137.92V13.4561H137.991C138.11 13.1863 138.311 12.9601 138.566 12.8091C138.821 12.6581 139.117 12.5898 139.413 12.6137C139.645 12.5964 139.878 12.6311 140.095 12.7152C140.311 12.7993 140.506 12.9306 140.665 13.0995C140.823 13.2684 140.941 13.4705 141.01 13.6908C141.079 13.9111 141.097 14.144 141.063 14.3722V17.433H140.122V14.6066C140.122 13.8468 139.79 13.4689 139.094 13.4689C138.936 13.4616 138.779 13.4882 138.633 13.5469C138.487 13.6055 138.355 13.6947 138.247 13.8085C138.139 13.9223 138.057 14.058 138.007 14.2062C137.956 14.3543 137.939 14.5116 137.955 14.6671V17.4331H137.015V12.705ZM142.562 10.8592H143.503V17.4331H142.562V10.8592ZM144.811 15.067C144.781 14.7562 144.817 14.4427 144.916 14.1465C145.016 13.8503 145.176 13.5779 145.388 13.3469C145.6 13.1159 145.858 12.9313 146.146 12.805C146.434 12.6787 146.745 12.6135 147.06 12.6135C147.374 12.6135 147.686 12.6787 147.974 12.805C148.261 12.9313 148.519 13.1159 148.731 13.3469C148.943 13.5779 149.104 13.8503 149.203 14.1465C149.302 14.4427 149.338 14.7562 149.308 15.067C149.339 15.378 149.303 15.6919 149.204 15.9886C149.105 16.2852 148.944 16.558 148.732 16.7894C148.521 17.0208 148.262 17.2057 147.974 17.3322C147.686 17.4588 147.375 17.5241 147.06 17.5241C146.745 17.5241 146.433 17.4588 146.145 17.3322C145.857 17.2057 145.599 17.0208 145.387 16.7894C145.175 16.558 145.014 16.2852 144.915 15.9886C144.816 15.6919 144.781 15.378 144.811 15.067V15.067ZM148.34 15.067C148.34 14.0421 147.876 13.4428 147.061 13.4428C146.243 13.4428 145.783 14.0421 145.783 15.067C145.783 16.1001 146.243 16.6948 147.061 16.6948C147.876 16.6948 148.34 16.096 148.34 15.067ZM150.298 16.096C150.298 15.2449 150.937 14.7542 152.072 14.6845L153.363 14.6107V14.2025C153.363 13.7032 153.03 13.4212 152.387 13.4212C151.862 13.4212 151.498 13.6124 151.393 13.9468H150.482C150.579 13.1346 151.349 12.6138 152.43 12.6138C153.626 12.6138 154.3 13.2039 154.3 14.2025V17.4331H153.394V16.7686H153.319C153.168 17.007 152.956 17.2013 152.705 17.3317C152.453 17.4621 152.171 17.524 151.888 17.511C151.687 17.5316 151.485 17.5104 151.294 17.4488C151.102 17.3872 150.926 17.2865 150.777 17.1531C150.627 17.0198 150.507 16.8569 150.425 16.6748C150.342 16.4927 150.299 16.2955 150.298 16.096V16.096ZM153.363 15.692V15.2966L152.199 15.3704C151.542 15.414 151.244 15.6356 151.244 16.0523C151.244 16.4779 151.617 16.7256 152.128 16.7256C152.278 16.7406 152.43 16.7256 152.574 16.6814C152.718 16.6372 152.851 16.5648 152.967 16.4683C153.082 16.3719 153.176 16.2534 153.244 16.1201C153.312 15.9867 153.353 15.8411 153.363 15.692V15.692ZM155.536 15.067C155.536 13.573 156.311 12.6266 157.515 12.6266C157.813 12.613 158.109 12.6837 158.368 12.8306C158.626 12.9775 158.838 13.1945 158.977 13.4561H159.047V10.8591H159.988V17.433H159.087V16.6859H159.012C158.862 16.9458 158.643 17.16 158.38 17.3054C158.116 17.4508 157.817 17.5219 157.515 17.5109C156.302 17.5109 155.536 16.5644 155.536 15.0669V15.067ZM156.508 15.067C156.508 16.0697 156.985 16.6733 157.782 16.6733C158.575 16.6733 159.065 16.0611 159.065 15.071C159.065 14.0857 158.57 13.4648 157.782 13.4648C156.99 13.4648 156.508 14.0723 156.508 15.067ZM163.881 15.067C163.851 14.7563 163.886 14.4428 163.986 14.1466C164.085 13.8504 164.246 13.5781 164.458 13.3471C164.669 13.1162 164.927 12.9316 165.215 12.8053C165.503 12.679 165.814 12.6138 166.129 12.6138C166.444 12.6138 166.755 12.679 167.043 12.8053C167.33 12.9316 167.588 13.1162 167.8 13.3471C168.012 13.5781 168.172 13.8504 168.272 14.1466C168.371 14.4428 168.407 14.7563 168.377 15.067C168.408 15.3781 168.372 15.6921 168.273 15.9888C168.174 16.2855 168.014 16.5584 167.802 16.7899C167.59 17.0214 167.332 17.2064 167.044 17.333C166.756 17.4596 166.444 17.525 166.129 17.525C165.814 17.525 165.502 17.4596 165.214 17.333C164.926 17.2064 164.667 17.0214 164.456 16.7899C164.244 16.5584 164.083 16.2855 163.984 15.9888C163.885 15.6921 163.85 15.3781 163.881 15.067V15.067ZM167.409 15.067C167.409 14.0421 166.945 13.4428 166.13 13.4428C165.313 13.4428 164.853 14.0421 164.853 15.067C164.853 16.1001 165.313 16.6948 166.13 16.6948C166.945 16.6948 167.409 16.096 167.409 15.067ZM169.639 12.705H170.545V13.4561H170.615C170.735 13.1863 170.936 12.9601 171.191 12.8091C171.446 12.6581 171.742 12.5898 172.038 12.6137C172.27 12.5964 172.503 12.6311 172.719 12.7152C172.936 12.7993 173.131 12.9306 173.289 13.0995C173.448 13.2684 173.566 13.4705 173.635 13.6908C173.704 13.9111 173.722 14.144 173.688 14.3722V17.433H172.747V14.6066C172.747 13.8468 172.414 13.4689 171.719 13.4689C171.561 13.4616 171.404 13.4882 171.258 13.5469C171.112 13.6055 170.98 13.6947 170.872 13.8085C170.764 13.9223 170.682 14.058 170.631 14.2062C170.581 14.3543 170.564 14.5116 170.58 14.6671V17.4331H169.639L169.639 12.705ZM179.004 11.5279V12.7266H180.037V13.5125H179.004V15.9436C179.004 16.4389 179.21 16.6559 179.678 16.6559C179.798 16.6554 179.918 16.6482 180.037 16.6342V17.4115C179.868 17.4415 179.697 17.4575 179.525 17.4592C178.479 17.4592 178.062 17.0941 178.062 16.1826V13.5125H177.306V12.7264H178.062V11.528L179.004 11.5279ZM181.322 10.8592H182.255V13.4648H182.329C182.454 13.1925 182.661 12.9651 182.921 12.8135C183.181 12.6619 183.482 12.5936 183.783 12.6178C184.014 12.6053 184.244 12.6435 184.459 12.7297C184.673 12.8158 184.865 12.9478 185.022 13.1162C185.179 13.2845 185.296 13.4851 185.366 13.7037C185.435 13.9222 185.456 14.1533 185.425 14.3805V17.4331H184.483V14.6107C184.483 13.8554 184.128 13.473 183.463 13.473C183.302 13.4599 183.139 13.4819 182.987 13.5376C182.835 13.5933 182.697 13.6813 182.582 13.7955C182.468 13.9097 182.38 14.0473 182.325 14.1986C182.27 14.3499 182.249 14.5114 182.263 14.6717V17.4331H181.322V10.8592ZM190.911 16.1564C190.783 16.5885 190.506 16.9623 190.128 17.2124C189.751 17.4624 189.296 17.5729 188.845 17.5243C188.531 17.5325 188.219 17.4729 187.93 17.3495C187.642 17.2261 187.384 17.0419 187.174 16.8097C186.965 16.5775 186.809 16.3029 186.717 16.0048C186.625 15.7068 186.6 15.3926 186.643 15.0839C186.601 14.7743 186.627 14.4593 186.718 14.1604C186.81 13.8615 186.965 13.5856 187.173 13.3513C187.382 13.1171 187.639 12.93 187.926 12.8027C188.214 12.6755 188.526 12.611 188.841 12.6137C190.167 12.6137 190.967 13.5125 190.967 14.9972V15.3228H187.601V15.3751C187.586 15.5486 187.608 15.7232 187.666 15.8878C187.723 16.0524 187.814 16.2033 187.934 16.3308C188.053 16.4583 188.198 16.5597 188.36 16.6284C188.521 16.697 188.695 16.7315 188.871 16.7296C189.096 16.7564 189.324 16.7162 189.526 16.6141C189.728 16.512 189.894 16.3527 190.005 16.1564H190.911ZM187.601 14.6327H190.009C190.021 14.474 189.999 14.3146 189.945 14.1648C189.891 14.0149 189.806 13.8779 189.696 13.7626C189.585 13.6472 189.452 13.5561 189.303 13.495C189.155 13.4339 188.996 13.4043 188.836 13.4079C188.673 13.4059 188.511 13.4362 188.361 13.497C188.21 13.5578 188.073 13.648 187.958 13.7621C187.843 13.8763 187.752 14.0121 187.691 14.1616C187.629 14.3112 187.599 14.4713 187.601 14.6327V14.6327Z" fill="white"/>
<g filter="url(#filter1_dddddd_2487_5)">
<path d="M356.226 2H238.922C236.341 2 234.23 4.3625 234.23 7.25002V38.75C234.23 41.6375 236.341 44 238.922 44H356.226C358.807 44 360.918 41.6375 360.918 38.75V7.25002C360.918 4.3625 358.807 2 356.226 2Z" fill="black"/>
<path fill-rule="evenodd" clip-rule="evenodd" d="M238.922 2H356.226C358.807 2 360.918 4.3625 360.918 7.25002V38.75C360.918 41.6375 358.807 44 356.226 44H238.922C236.341 44 234.23 41.6375 234.23 38.75V7.25002C234.23 4.3625 236.341 2 238.922 2Z" fill="black"/>
</g>
<path d="M355.693 43.3852H239.48C236.951 43.3852 234.882 41.0925 234.882 38.2904V7.72176C234.882 4.9196 236.951 2.62695 239.48 2.62695H355.693C358.222 2.62695 360.291 4.9196 360.291 7.72176V38.2904C360.291 41.0925 358.222 43.3852 355.693 43.3852Z" fill="black"/>
<path d="M278.729 12.7557C278.729 13.6354 278.496 14.3359 278.03 14.8585C277.5 15.4799 276.81 15.7908 275.961 15.7908C275.148 15.7908 274.457 15.4758 273.889 14.845C273.32 14.2146 273.036 13.4328 273.036 12.5001C273.036 11.567 273.32 10.7857 273.889 10.1548C274.457 9.52445 275.148 9.20898 275.961 9.20898C276.364 9.20898 276.75 9.29723 277.117 9.4732C277.483 9.64959 277.777 9.88375 277.997 10.177L277.502 10.7311C277.13 10.2328 276.616 9.98379 275.961 9.98379C275.368 9.98379 274.856 10.2168 274.423 10.6831C273.991 11.1499 273.774 11.7553 273.774 12.5001C273.774 13.245 273.991 13.8503 274.423 14.3172C274.856 14.7835 275.368 15.0165 275.961 15.0165C276.59 15.0165 277.114 14.7822 277.534 14.3131C277.806 14.0074 277.964 13.5826 278.006 13.037H275.961V12.2803H278.689C278.716 12.4448 278.729 12.6027 278.729 12.7557" fill="white"/>
<path d="M278.729 12.7557H278.635C278.634 13.6154 278.41 14.2831 277.963 14.7843L277.962 14.7852L277.962 14.786C277.449 15.386 276.79 15.6846 275.961 15.6859C275.17 15.6846 274.508 15.3827 273.955 14.7708C273.403 14.1576 273.131 13.409 273.13 12.5001C273.131 11.5908 273.403 10.8427 273.955 10.2299C274.508 9.61757 275.17 9.31527 275.961 9.314C276.352 9.314 276.725 9.39941 277.08 9.56958C277.435 9.74106 277.716 9.96578 277.926 10.2448L277.997 10.177L277.931 10.1028L277.436 10.6572L277.502 10.7311L277.575 10.6639C277.185 10.1409 276.637 9.87725 275.961 9.87881C275.346 9.87796 274.806 10.1237 274.358 10.6077C273.907 11.0933 273.68 11.7327 273.681 12.5001C273.68 13.2676 273.907 13.907 274.358 14.3926C274.806 14.8766 275.346 15.1223 275.961 15.1215C276.611 15.1227 277.164 14.8762 277.6 14.3873C277.891 14.0607 278.056 13.6084 278.099 13.046L278.108 12.932H276.055V12.3853H278.689V12.2803L278.597 12.2987C278.623 12.458 278.635 12.6092 278.635 12.7557H278.823C278.823 12.5961 278.809 12.4321 278.782 12.2615L278.768 12.1753H275.867V13.142H278.006V13.037L277.912 13.028C277.871 13.5563 277.721 13.9542 277.467 14.2389C277.064 14.6884 276.569 14.9102 275.961 14.9115C275.39 14.9106 274.906 14.6908 274.489 14.2417C274.075 13.7942 273.869 13.2228 273.868 12.5001C273.869 11.7774 274.075 11.2061 274.489 10.7586C274.906 10.3095 275.39 10.0897 275.961 10.0888C276.596 10.0905 277.075 10.3251 277.431 10.7988L277.497 10.8866L278.064 10.2513L278.125 10.1832L278.069 10.1097C277.839 9.80217 277.531 9.55806 277.154 9.37686C276.776 9.19508 276.376 9.10401 275.961 9.10401C275.127 9.1032 274.407 9.43131 273.823 10.0806C273.237 10.7287 272.941 11.5433 272.942 12.5001C272.941 13.4566 273.237 14.2716 273.823 14.9201C274.407 15.569 275.127 15.8967 275.961 15.8959C276.83 15.8967 277.551 15.5738 278.097 14.9311L278.03 14.8585L278.096 14.9328C278.582 14.3893 278.823 13.6552 278.823 12.7557H278.729H278.729ZM283.054 10.1241H280.49V12.1216H282.802V12.8786H280.49V14.8762H283.054V15.6501H279.767V9.35015H283.054V10.1241" fill="white"/>
<path d="M283.054 10.1241V10.0191H280.396V12.2266H282.708V12.7733L280.396 12.7736V14.9811H282.96V15.5451H279.861V9.45511H282.96V10.1241H283.054V10.0191V10.1241H283.148V9.24512H279.673V15.7551H283.148V14.7712H280.584V12.9836H282.896V12.0166H280.584V10.2291H283.148V10.1241H283.054V10.1241ZM286.105 15.6502H285.381V10.124H283.808V9.35007H287.678V10.124H286.105V15.6501" fill="white"/>
<path d="M286.105 15.6502V15.5451H285.475V10.0191H283.903V9.45516H287.584V10.0191H286.011V15.6501H286.105V15.5451V15.6501H286.199V10.2291H287.772V9.24512H283.715V10.229H285.287V15.7551H286.199V15.6501H286.105V15.6502ZM290.477 15.6502V9.35007H291.201V15.6501H290.477" fill="white"/>
<path d="M290.477 15.6502H290.571V9.45511H291.107V15.5451H290.477V15.6501H290.571H290.477V15.7551H291.294V9.24512H290.384V15.7551H290.477V15.6501V15.6502ZM294.41 15.6502H293.686V10.124H292.113V9.35007H295.983V10.124H294.41V15.6501" fill="white"/>
<path d="M294.41 15.6502V15.5451H293.78V10.0191H292.207V9.45517H295.889V10.0191H294.316V15.6501H294.41V15.5451V15.6501H294.504V10.2291H296.077V9.24513H292.02V10.229H293.592V15.7551H294.504V15.6501H294.41V15.6502ZM299.713 14.3086C300.13 14.7806 300.64 15.0164 301.243 15.0164C301.846 15.0164 302.356 14.7806 302.772 14.3086C303.189 13.8365 303.398 13.233 303.398 12.5001C303.398 11.7673 303.189 11.1638 302.772 10.6917C302.356 10.2196 301.846 9.98379 301.243 9.98379C300.64 9.98379 300.13 10.2196 299.713 10.6917C299.297 11.1638 299.088 11.7672 299.088 12.5001C299.088 13.233 299.297 13.8365 299.713 14.3086ZM303.307 14.836C302.754 15.4729 302.065 15.7908 301.243 15.7908C300.419 15.7908 299.731 15.4729 299.179 14.836C298.625 14.1997 298.349 13.421 298.349 12.5001C298.349 11.5793 298.625 10.8004 299.179 10.1643C299.731 9.52723 300.419 9.20898 301.243 9.20898C302.061 9.20898 302.748 9.52893 303.304 10.1684C303.859 10.8078 304.137 11.585 304.137 12.5001C304.137 13.421 303.86 14.1997 303.307 14.836Z" fill="white"/>
<path d="M299.713 14.3086L299.646 14.3824C300.078 14.8734 300.618 15.1227 301.243 15.1215C301.867 15.1227 302.407 14.8734 302.839 14.3824C303.274 13.891 303.493 13.2552 303.492 12.5001C303.493 11.7451 303.274 11.1093 302.839 10.6179C302.407 10.1269 301.867 9.87758 301.243 9.87881C300.618 9.87758 300.078 10.1269 299.646 10.6179C299.212 11.1093 298.993 11.7451 298.994 12.5001C298.993 13.2552 299.212 13.891 299.646 14.3824L299.713 14.3086L299.78 14.2347C299.382 13.7815 299.183 13.2113 299.182 12.5001C299.183 11.789 299.382 11.2189 299.78 10.7655C300.181 10.3124 300.661 10.0901 301.243 10.0889C301.824 10.0901 302.305 10.3124 302.705 10.7655C303.104 11.2189 303.303 11.789 303.304 12.5001C303.303 13.2113 303.104 13.7815 302.705 14.2347C302.305 14.6879 301.824 14.9102 301.243 14.9114C300.661 14.9102 300.181 14.6879 299.78 14.2347L299.713 14.3086ZM303.307 14.836L303.24 14.763C302.702 15.3799 302.044 15.6846 301.243 15.6859C300.441 15.6846 299.783 15.3799 299.246 14.763L299.243 14.7597L299.246 14.763C298.709 14.144 298.444 13.3976 298.443 12.5001C298.444 11.6027 298.709 10.8562 299.246 10.2373C299.783 9.6204 300.441 9.31527 301.243 9.31405C302.039 9.31527 302.695 9.62168 303.236 10.2418C303.775 10.8636 304.042 11.6089 304.043 12.5001C304.042 13.3976 303.776 14.144 303.24 14.763L303.307 14.836L303.375 14.9089C303.944 14.2552 304.231 13.4443 304.231 12.5001C304.231 11.5614 303.942 10.7521 303.371 10.0955C302.799 9.43622 302.083 9.10287 301.243 9.10401C300.398 9.10287 299.68 9.43466 299.111 10.0914V10.0909C298.541 10.7451 298.255 11.556 298.255 12.5001C298.255 13.4443 298.541 14.2552 299.111 14.9094L299.114 14.9123L299.111 14.9089C299.68 15.5656 300.398 15.8967 301.243 15.8959C302.087 15.8967 302.805 15.5656 303.375 14.9089L303.307 14.836V14.836ZM305.152 15.6502V9.3501H306.033L308.769 14.2511H308.8L308.769 13.037V9.3501H309.493V15.6501H308.738L305.875 10.5116H305.844L305.875 11.7261V15.6501H305.152" fill="white"/>
<path d="M305.152 15.6502H305.246V9.45511H305.981L308.717 14.3561H308.897L308.863 13.0354V9.45516H309.399V15.5451H308.79L305.927 10.4066H305.747L305.781 11.7279V15.5451H305.152V15.6501H305.246H305.152V15.7551H305.969V11.7245L305.938 10.5088L305.844 10.5116V10.6166H305.875V10.5116L305.795 10.5675L308.686 15.7551H309.587V9.24512H308.675V13.0382L308.706 14.2539L308.8 14.2511V14.1461H308.769V14.2511L308.849 14.1953L306.085 9.24512H305.058V15.7551H305.152V15.6501L305.152 15.6502ZM334.582 33.5001H336.333V20.3739H334.582L334.582 33.5001ZM350.354 25.1023L348.347 30.7931H348.287L346.203 25.1022H344.317L347.441 33.0563L345.66 37.4807H347.487L352.301 25.1022L350.354 25.1023ZM340.424 32.0093C339.849 32.0093 339.05 31.6885 339.05 30.8944C339.05 29.8813 340.046 29.4929 340.906 29.4929C341.677 29.4929 342.038 29.6787 342.506 29.9323C342.37 31.1479 341.434 32.0093 340.424 32.0093V32.0093ZM340.635 24.8151C339.367 24.8151 338.054 25.4401 337.511 26.8249L339.065 27.5508C339.397 26.8249 340.015 26.5882 340.665 26.5882C341.57 26.5882 342.491 27.1964 342.506 28.2772V28.4122C342.189 28.2095 341.51 27.9056 340.68 27.9056C339.005 27.9056 337.299 28.9355 337.299 30.8608C337.299 32.6171 338.673 33.7487 340.212 33.7487C341.389 33.7487 342.038 33.1576 342.446 32.4653H342.506V33.4784H344.196V28.4457C344.196 26.1157 342.642 24.8151 340.635 24.8151V24.8151ZM329.813 26.7001H327.322V22.2008H329.813C331.122 22.2008 331.865 23.4135 331.865 24.4504C331.865 25.4676 331.122 26.7001 329.813 26.7001ZM329.768 20.3739H325.572V33.5001H327.322V28.527H329.768C331.708 28.527 333.616 26.9548 333.616 24.4504C333.616 21.946 331.708 20.3739 329.768 20.3739V20.3739ZM306.888 32.0117C305.678 32.0117 304.665 30.8784 304.665 29.3219C304.665 27.749 305.678 26.5985 306.888 26.5985C308.082 26.5985 309.019 27.7489 309.019 29.3219C309.019 30.8784 308.082 32.0117 306.888 32.0117H306.888ZM308.898 25.8372H308.838C308.445 25.313 307.689 24.8393 306.736 24.8393C304.741 24.8393 302.912 26.8015 302.912 29.3219C302.912 31.8255 304.741 33.7708 306.736 33.7708C307.689 33.7708 308.445 33.2971 308.838 32.7561H308.898V33.3988C308.898 35.1076 308.082 36.021 306.767 36.021C305.693 36.021 305.028 35.158 304.756 34.4307L303.229 35.1412C303.667 36.3253 304.832 37.7802 306.767 37.7802C308.823 37.7802 310.562 36.4266 310.562 33.1281V25.11H308.898V25.8372ZM311.771 33.5001H313.525V20.3734H311.771V33.5001ZM316.11 29.1697C316.065 27.4441 317.304 26.5648 318.196 26.5648C318.892 26.5648 319.482 26.9536 319.678 27.5123L316.11 29.1697ZM321.553 27.6812C321.22 26.6829 320.207 24.8393 318.136 24.8393C316.08 24.8393 314.371 26.6493 314.371 29.3051C314.371 31.8087 316.065 33.7708 318.332 33.7708C320.162 33.7708 321.22 32.519 321.659 31.7918L320.298 30.7766C319.845 31.5211 319.224 32.0117 318.332 32.0117C317.44 32.0117 316.806 31.5548 316.397 30.6585L321.734 28.1886L321.553 27.6812ZM279.034 26.2096V28.1041H283.086C282.965 29.1697 282.647 29.9478 282.163 30.4891C281.574 31.1491 280.652 31.8763 279.034 31.8763C276.539 31.8763 274.589 29.6266 274.589 26.8354C274.589 24.0444 276.539 21.7943 279.034 21.7943C280.38 21.7943 281.362 22.3865 282.088 23.1477L283.282 21.8115C282.269 20.7286 280.924 19.8998 279.034 19.8998C275.617 19.8998 272.745 23.0124 272.745 26.8354C272.745 30.6585 275.617 33.7708 279.034 33.7708C280.879 33.7708 282.269 33.0945 283.358 31.8255C284.477 30.5737 284.824 28.8145 284.824 27.3937C284.824 26.9536 284.794 26.548 284.733 26.2096H279.034ZM289.431 32.0117C288.221 32.0117 287.178 30.8952 287.178 29.3051C287.178 27.698 288.221 26.5985 289.431 26.5985C290.64 26.5985 291.683 27.698 291.683 29.3051C291.683 30.8952 290.64 32.0117 289.431 32.0117ZM289.431 24.8393C287.223 24.8393 285.424 26.7169 285.424 29.3051C285.424 31.8763 287.223 33.7708 289.431 33.7708C291.638 33.7708 293.437 31.8763 293.437 29.3051C293.437 26.7169 291.638 24.8393 289.431 24.8393ZM298.171 32.0117C296.961 32.0117 295.918 30.8952 295.918 29.3051C295.918 27.698 296.961 26.5985 298.171 26.5985C299.38 26.5985 300.423 27.698 300.423 29.3051C300.423 30.8952 299.38 32.0117 298.171 32.0117H298.171ZM298.171 24.8393C295.963 24.8393 294.164 26.7169 294.164 29.3051C294.164 31.8763 295.963 33.7708 298.171 33.7708C300.378 33.7708 302.177 31.8763 302.177 29.3051C302.177 26.7169 300.378 24.8393 298.171 24.8393H298.171Z" fill="white"/>
<path d="M244.091 9.99173C243.776 10.3096 243.588 10.8399 243.588 11.5438V11.3847V34.6118V34.4588C243.588 35.1089 243.75 35.6109 244.023 35.9342L244.092 36.0088V36.0092C244.313 36.2323 244.597 36.3508 244.922 36.3504C245.239 36.3504 245.596 36.2372 245.973 35.9982L259.595 27.3385L264.273 24.3636C264.868 23.9859 265.201 23.4986 265.257 23.0023V23.0003C265.201 22.5028 264.868 22.0159 264.274 21.6382L259.594 18.6637L245.973 10.004C245.595 9.76451 245.238 9.65088 244.92 9.65088C244.595 9.65088 244.312 9.76899 244.091 9.99173H244.091Z" fill="#00C1FF"/>
<path d="M244.092 36.0088L244.023 35.9341C243.75 35.6109 243.588 35.1088 243.588 34.4588V34.6118V11.3904V11.5438C243.588 10.8399 243.776 10.3096 244.091 9.99169L255.718 23.0007L244.092 36.0088Z" fill="url(#paint0_linear_2487_5)"/>
<path d="M259.594 27.3389L255.718 23.0011L259.594 18.6641L264.273 21.6385C264.868 22.0163 265.201 22.5032 265.257 23.0007V23.0027C265.201 23.499 264.868 23.9863 264.273 24.364L259.594 27.3388" fill="url(#paint1_linear_2487_5)"/>
<path d="M244.922 36.3508C244.597 36.3512 244.313 36.2326 244.092 36.0095V36.0092L255.718 23.0011L259.595 27.3388L245.973 35.9985C245.596 36.2376 245.239 36.3508 244.922 36.3508Z" fill="url(#paint2_linear_2487_5)"/>
<path d="M255.718 23.0015L244.091 9.99249C244.312 9.76976 244.595 9.65164 244.92 9.65164C245.238 9.65164 245.595 9.76522 245.973 10.0048L259.594 18.6644L255.718 23.0015" fill="url(#paint3_linear_2487_5)"/>
<path d="M244.922 36.5051C244.597 36.5051 244.314 36.3866 244.093 36.1635L244.092 36.1639C244.091 36.1628 244.09 36.1619 244.089 36.161L244.029 36.095C244.027 36.0929 244.025 36.0905 244.023 36.0881L244.093 36.0101C244.314 36.2332 244.597 36.3517 244.922 36.3513C245.239 36.3513 245.596 36.2381 245.973 35.999L259.595 27.3394L259.682 27.437L259.594 27.4932L245.973 36.1524C245.63 36.3702 245.303 36.4838 245.008 36.5027C244.979 36.5043 244.951 36.5051 244.922 36.5051" fill="url(#paint4_linear_2487_5)"/>
<path d="M244.023 36.0872C243.75 35.7639 243.588 35.2623 243.588 34.6118V34.4588C243.588 35.1089 243.75 35.6109 244.023 35.9342L244.092 36.0088L244.023 36.0872" fill="url(#paint5_linear_2487_5)"/>
<path d="M259.682 27.4357L259.594 27.3381L264.273 24.3632C264.868 23.9856 265.201 23.4982 265.257 23.0019C265.257 23.1841 265.221 23.3662 265.148 23.5434C265.003 23.9006 264.711 24.2382 264.273 24.5166L259.682 27.4358" fill="url(#paint6_linear_2487_5)"/>
<path d="M265.257 23.001C265.201 22.5035 264.868 22.0166 264.273 21.6388L259.594 18.6644L259.681 18.5667H259.682L264.273 21.4858C264.929 21.9025 265.257 22.4517 265.257 23.001" fill="url(#paint7_linear_2487_5)"/>
<path d="M243.588 11.5439V11.3835C243.588 11.3256 243.59 11.2691 243.592 11.2141V11.2116C243.592 11.2109 243.592 11.2101 243.593 11.2092V11.203C243.621 10.6431 243.776 10.2064 244.023 9.91477L244.091 9.99183C243.776 10.3098 243.588 10.8401 243.588 11.5439Z" fill="url(#paint8_linear_2487_5)"/>
<path d="M259.594 18.6638L245.973 10.0041C245.595 9.76458 245.238 9.651 244.92 9.651C244.595 9.651 244.312 9.76911 244.091 9.99185L244.023 9.91474C244.044 9.88936 244.066 9.86488 244.089 9.84136C244.09 9.84051 244.091 9.83966 244.092 9.83886C244.311 9.61782 244.591 9.49971 244.913 9.49758H244.92C245.238 9.49758 245.595 9.61122 245.973 9.8508L259.682 18.5658L259.681 18.5661L259.594 18.6638" fill="url(#paint9_linear_2487_5)"/>
<defs>
<filter id="filter0_dddddd_2487_5" x="0" y="0.703704" width="286.689" height="223.296" filterUnits="userSpaceOnUse" color-interpolation-filters="sRGB">
<feFlood flood-opacity="0" result="BackgroundImageFix"/>
<feColorMatrix in="SourceAlpha" type="matrix" values="0 0 0 0 0 0 0 0 0 0 0 0 0 0 0 0 0 0 127 0" result="hardAlpha"/>
<feOffset dy="1.85185"/>
<feGaussianBlur stdDeviation="1.57407"/>
<feColorMatrix type="matrix" values="0 0 0 0 0.219608 0 0 0 0 0.219608 0 0 0 0 0.219608 0 0 0 0.0240741 0"/>
<feBlend mode="normal" in2="BackgroundImageFix" result="effect1_dropShadow_2487_5"/>
<feColorMatrix in="SourceAlpha" type="matrix" values="0 0 0 0 0 0 0 0 0 0 0 0 0 0 0 0 0 0 127 0" result="hardAlpha"/>
<feOffset dy="8.14815"/>
<feGaussianBlur stdDeviation="3.25926"/>
<feColorMatrix type="matrix" values="0 0 0 0 0.219608 0 0 0 0 0.219608 0 0 0 0 0.219608 0 0 0 0.0392593 0"/>
<feBlend mode="normal" in2="effect1_dropShadow_2487_5" result="effect2_dropShadow_2487_5"/>
<feColorMatrix in="SourceAlpha" type="matrix" values="0 0 0 0 0 0 0 0 0 0 0 0 0 0 0 0 0 0 127 0" result="hardAlpha"/>
<feOffset dy="20"/>
<feGaussianBlur stdDeviation="6.5"/>
<feColorMatrix type="matrix" values="0 0 0 0 0.219608 0 0 0 0 0.219608 0 0 0 0 0.219608 0 0 0 0.05 0"/>
<feBlend mode="normal" in2="effect2_dropShadow_2487_5" result="effect3_dropShadow_2487_5"/>
<feColorMatrix in="SourceAlpha" type="matrix" values="0 0 0 0 0 0 0 0 0 0 0 0 0 0 0 0 0 0 127 0" result="hardAlpha"/>
<feOffset dy="38.5185"/>
<feGaussianBlur stdDeviation="12.7407"/>
<feColorMatrix type="matrix" values="0 0 0 0 0.219608 0 0 0 0 0.219608 0 0 0 0 0.219608 0 0 0 0.0607407 0"/>
<feBlend mode="normal" in2="effect3_dropShadow_2487_5" result="effect4_dropShadow_2487_5"/>
<feColorMatrix in="SourceAlpha" type="matrix" values="0 0 0 0 0 0 0 0 0 0 0 0 0 0 0 0 0 0 127 0" result="hardAlpha"/>
<feOffset dy="64.8148"/>
<feGaussianBlur stdDeviation="23.4259"/>
<feColorMatrix type="matrix" values="0 0 0 0 0.219608 0 0 0 0 0.219608 0 0 0 0 0.219608 0 0 0 0.0759259 0"/>
<feBlend mode="normal" in2="effect4_dropShadow_2487_5" result="effect5_dropShadow_2487_5"/>
<feColorMatrix in="SourceAlpha" type="matrix" values="0 0 0 0 0 0 0 0 0 0 0 0 0 0 0 0 0 0 127 0" result="hardAlpha"/>
<feOffset dy="100"/>
<feGaussianBlur stdDeviation="40"/>
<feColorMatrix type="matrix" values="0 0 0 0 0.219608 0 0 0 0 0.219608 0 0 0 0 0.219608 0 0 0 0.1 0"/>
<feBlend mode="normal" in2="effect5_dropShadow_2487_5" result="effect6_dropShadow_2487_5"/>
<feBlend mode="normal" in="SourceGraphic" in2="effect6_dropShadow_2487_5" result="shape"/>
</filter>
<filter id="filter1_dddddd_2487_5" x="154.23" y="0.703704" width="286.689" height="223.296" filterUnits="userSpaceOnUse" color-interpolation-filters="sRGB">
<feFlood flood-opacity="0" result="BackgroundImageFix"/>
<feColorMatrix in="SourceAlpha" type="matrix" values="0 0 0 0 0 0 0 0 0 0 0 0 0 0 0 0 0 0 127 0" result="hardAlpha"/>
<feOffset dy="1.85185"/>
<feGaussianBlur stdDeviation="1.57407"/>
<feColorMatrix type="matrix" values="0 0 0 0 0.219608 0 0 0 0 0.219608 0 0 0 0 0.219608 0 0 0 0.0240741 0"/>
<feBlend mode="normal" in2="BackgroundImageFix" result="effect1_dropShadow_2487_5"/>
<feColorMatrix in="SourceAlpha" type="matrix" values="0 0 0 0 0 0 0 0 0 0 0 0 0 0 0 0 0 0 127 0" result="hardAlpha"/>
<feOffset dy="8.14815"/>
<feGaussianBlur stdDeviation="3.25926"/>
<feColorMatrix type="matrix" values="0 0 0 0 0.219608 0 0 0 0 0.219608 0 0 0 0 0.219608 0 0 0 0.0392593 0"/>
<feBlend mode="normal" in2="effect1_dropShadow_2487_5" result="effect2_dropShadow_2487_5"/>
<feColorMatrix in="SourceAlpha" type="matrix" values="0 0 0 0 0 0 0 0 0 0 0 0 0 0 0 0 0 0 127 0" result="hardAlpha"/>
<feOffset dy="20"/>
<feGaussianBlur stdDeviation="6.5"/>
<feColorMatrix type="matrix" values="0 0 0 0 0.219608 0 0 0 0 0.219608 0 0 0 0 0.219608 0 0 0 0.05 0"/>
<feBlend mode="normal" in2="effect2_dropShadow_2487_5" result="effect3_dropShadow_2487_5"/>
<feColorMatrix in="SourceAlpha" type="matrix" values="0 0 0 0 0 0 0 0 0 0 0 0 0 0 0 0 0 0 127 0" result="hardAlpha"/>
<feOffset dy="38.5185"/>
<feGaussianBlur stdDeviation="12.7407"/>
<feColorMatrix type="matrix" values="0 0 0 0 0.219608 0 0 0 0 0.219608 0 0 0 0 0.219608 0 0 0 0.0607407 0"/>
<feBlend mode="normal" in2="effect3_dropShadow_2487_5" result="effect4_dropShadow_2487_5"/>
<feColorMatrix in="SourceAlpha" type="matrix" values="0 0 0 0 0 0 0 0 0 0 0 0 0 0 0 0 0 0 127 0" result="hardAlpha"/>
<feOffset dy="64.8148"/>
<feGaussianBlur stdDeviation="23.4259"/>
<feColorMatrix type="matrix" values="0 0 0 0 0.219608 0 0 0 0 0.219608 0 0 0 0 0.219608 0 0 0 0.0759259 0"/>
<feBlend mode="normal" in2="effect4_dropShadow_2487_5" result="effect5_dropShadow_2487_5"/>
<feColorMatrix in="SourceAlpha" type="matrix" values="0 0 0 0 0 0 0 0 0 0 0 0 0 0 0 0 0 0 127 0" result="hardAlpha"/>
<feOffset dy="100"/>
<feGaussianBlur stdDeviation="40"/>
<feColorMatrix type="matrix" values="0 0 0 0 0.219608 0 0 0 0 0.219608 0 0 0 0 0.219608 0 0 0 0.1 0"/>
<feBlend mode="normal" in2="effect5_dropShadow_2487_5" result="effect6_dropShadow_2487_5"/>
<feBlend mode="normal" in="SourceGraphic" in2="effect6_dropShadow_2487_5" result="shape"/>
</filter>
<linearGradient id="paint0_linear_2487_5" x1="251.019" y1="11.145" x2="239.892" y2="21.1215" gradientUnits="userSpaceOnUse">
<stop stop-color="#00A0FF"/>
<stop offset="0.00657" stop-color="#00A1FF"/>
<stop offset="0.2601" stop-color="#00BEFF"/>
<stop offset="0.5122" stop-color="#00D2FF"/>
<stop offset="0.7604" stop-color="#00DFFF"/>
<stop offset="1" stop-color="#00E3FF"/>
</linearGradient>
<linearGradient id="paint1_linear_2487_5" x1="265.981" y1="22.9261" x2="243.274" y2="22.9261" gradientUnits="userSpaceOnUse">
<stop stop-color="#FFE000"/>
<stop offset="0.4087" stop-color="#FFBD00"/>
<stop offset="0.7754" stop-color="#FFA500"/>
<stop offset="1" stop-color="#FF9C00"/>
</linearGradient>
<linearGradient id="paint2_linear_2487_5" x1="257.537" y1="27.1252" x2="238.697" y2="43.8943" gradientUnits="userSpaceOnUse">
<stop stop-color="#FF3A44"/>
<stop offset="1" stop-color="#C31162"/>
</linearGradient>
<linearGradient id="paint3_linear_2487_5" x1="241.095" y1="8.06385" x2="249.493" y2="15.5502" gradientUnits="userSpaceOnUse">
<stop stop-color="#32A071"/>
<stop offset="0.0685" stop-color="#2DA771"/>
<stop offset="0.4762" stop-color="#15CF74"/>
<stop offset="0.8009" stop-color="#06E775"/>
<stop offset="1" stop-color="#00F076"/>
</linearGradient>
<linearGradient id="paint4_linear_2487_5" x1="257.528" y1="30.1347" x2="242.428" y2="43.674" gradientUnits="userSpaceOnUse">
<stop stop-color="#CC2E36"/>
<stop offset="1" stop-color="#9C0E4E"/>
</linearGradient>
<linearGradient id="paint5_linear_2487_5" x1="245.137" y1="11.145" x2="235.335" y2="19.9344" gradientUnits="userSpaceOnUse">
<stop stop-color="#008DE0"/>
<stop offset="0.00657" stop-color="#008DE0"/>
<stop offset="0.2601" stop-color="#00A7E0"/>
<stop offset="0.5122" stop-color="#00B8E0"/>
<stop offset="0.7604" stop-color="#00C4E0"/>
<stop offset="1" stop-color="#00C7E0"/>
</linearGradient>
<linearGradient id="paint6_linear_2487_5" x1="265.981" y1="23.001" x2="243.274" y2="23.001" gradientUnits="userSpaceOnUse">
<stop stop-color="#E0C500"/>
<stop offset="0.4087" stop-color="#E0A600"/>
<stop offset="0.7754" stop-color="#E09100"/>
<stop offset="1" stop-color="#E08900"/>
</linearGradient>
<linearGradient id="paint7_linear_2487_5" x1="265.981" y1="23.002" x2="243.274" y2="23.002" gradientUnits="userSpaceOnUse">
<stop stop-color="#FFE840"/>
<stop offset="0.4087" stop-color="#FFCE40"/>
<stop offset="0.7754" stop-color="#FFBC40"/>
<stop offset="1" stop-color="#FFB540"/>
</linearGradient>
<linearGradient id="paint8_linear_2487_5" x1="245.128" y1="11.163" x2="235.732" y2="19.2225" gradientUnits="userSpaceOnUse">
<stop stop-color="#40B8FF"/>
<stop offset="0.00657" stop-color="#40B9FF"/>
<stop offset="0.2601" stop-color="#40CEFF"/>
<stop offset="0.5122" stop-color="#40DDFF"/>
<stop offset="0.7604" stop-color="#40E7FF"/>
<stop offset="1" stop-color="#40EAFF"/>
</linearGradient>
<linearGradient id="paint9_linear_2487_5" x1="241.078" y1="10.8144" x2="247.82" y2="16.8603" gradientUnits="userSpaceOnUse">
<stop stop-color="#65B895"/>
<stop offset="0.0685" stop-color="#62BD95"/>
<stop offset="0.4762" stop-color="#50DB97"/>
<stop offset="0.8009" stop-color="#44ED98"/>
<stop offset="1" stop-color="#40F498"/>
</linearGradient>
</defs>
</svg>
