<svg width="251" height="617" viewBox="0 0 251 617" fill="none" xmlns="http://www.w3.org/2000/svg">
<path d="M51.0473 1C12.5571 8.17553 -36.1216 81.8191 45.0096 122.606C55.7014 126.761 82.8206 129.782 105.764 108.633C134.443 82.1968 98.2167 28.5691 58.2171 51.6064C18.2175 74.6436 36.3305 133.181 85.3866 145.266C134.443 157.351 155.197 159.617 169.914 175.856C184.631 192.096 202.744 219.287 190.669 258.186C180.262 291.71 130.337 312.05 126.158 272.069C124.492 256.134 131.759 240.625 141.264 227.727C175.476 181.309 211.183 175.101 222.744 175.101C233.109 175.101 295.542 177.565 280.579 248.425C276.973 265.499 267.032 280.36 255.967 293.852C223.212 333.789 177.961 393.935 169.914 418.691C162.996 440.745 156.059 485.324 169.914 514.049C185.478 546.317 220.059 593.868 333 616" stroke="#7C43FF" stroke-width="0.5" stroke-linecap="round"/>
</svg>
